# xmcd
#
# Track frame offsets:
#	182
#	12457
#	23560
#	34345
#	46317
#	55642
#	68517
#	82620
#	95230
#	107992
#
# Disc length: 1629 seconds
#
# Revision: 0
# Processed by: cddbd v1.5.2PL0 Copyright (c) Steve Scherf et al.
# Submitted via: dBpowerAMP V4.0
#
DISCID=74065b0a
DTITLE=Ray Charles - various
DYEAR=1900
DGENRE=Blues
TTITLE0=see See Rider
TTITLE1=I Wonder who's Kissing Her Now
TTITLE2=Hey Now
TTITLE3=Tell Me Baby
TTITLE4=All To Myself Alone
TTITLE5=Going Down Slow
TTITLE6=Baby Let Me Hold Your Hand
TTITLE7=I won't Let You Go
TTITLE8=I'm Glad for Your Sake
TTITLE9=Walkin' and Talkin'
EXTD=
EXTT0=
EXTT1=
EXTT2=
EXTT3=
EXTT4=
EXTT5=
EXTT6=
EXTT7=
EXTT8=
EXTT9=
PLAYORDER=
